<svg viewBox="0 0 100 100" version="1.1" xmlns="http://www.w3.org/2000/svg"
     id="el_q9TJh6D9M">
  <style>@-webkit-keyframes el_R9UW4-P7ah_cFTtL09b-_Animation{0%{-webkit-transform: translate(50.609373807907104px,
    50.12313608825207px) rotate(0deg) translate(-50.609373807907104px, -50.12313608825207px);transform:
    translate(50.609373807907104px, 50.12313608825207px) rotate(0deg) translate(-50.609373807907104px,
    -50.12313608825207px);}100%{-webkit-transform: translate(50.609373807907104px, 50.12313608825207px) rotate(360deg)
    translate(-50.609373807907104px, -50.12313608825207px);transform: translate(50.609373807907104px,
    50.12313608825207px) rotate(360deg) translate(-50.609373807907104px, -50.12313608825207px);}}
    
    @keyframes
    el_R9UW4-P7ah_cFTtL09b-_Animation{0%{-webkit-transform: translate(50.609373807907104px, 50.12313608825207px)
    rotate(0deg) translate(-50.609373807907104px, -50.12313608825207px);transform: translate(50.609373807907104px,
    50.12313608825207px) rotate(0deg) translate(-50.609373807907104px, -50.12313608825207px);}100%{-webkit-transform:
    translate(50.609373807907104px, 50.12313608825207px) rotate(360deg) translate(-50.609373807907104px,
    -50.12313608825207px);transform: translate(50.609373807907104px, 50.12313608825207px) rotate(360deg)
    translate(-50.609373807907104px, -50.12313608825207px);}}
    
    #el_q9TJh6D9M *{-webkit-animation-duration:
    3s;animation-duration: 3s;-webkit-animation-iteration-count: infinite;animation-iteration-count:
    infinite;-webkit-animation-timing-function: cubic-bezier(0, 0, 1, 1);animation-timing-function: cubic-bezier(0, 0,
    1, 1);}
    
  
    
    #el_R9UW4-P7ah{-webkit-transform: translate(12px,
    6px);transform: translate(12px, 6px);fill: #BCBCBC;}
    
    #el_xmvLW_YrWI{-webkit-transform: translate(32px,
    39px);transform: translate(32px, 35px);}
    
   
    
   #el_kL3ZG-zAr2{fill:
    #45ACA0;}
    #el_R9UW4-P7ah_cFTtL09b-{-webkit-animation-name: el_R9UW4-P7ah_cFTtL09b-_Animation;animation-name:
    el_R9UW4-P7ah_cFTtL09b-_Animation;-webkit-transform: translate(50.609373807907104px, 50.12313608825207px)
    rotate(0deg) translate(-50.609373807907104px, -50.12313608825207px);transform: translate(50.609373807907104px,
    50.12313608825207px) rotate(0deg) translate(-50.609373807907104px, -50.12313608825207px);}
  </style>
  <!-- Generator: Sketch 52.5 (67469) - http://www.bohemiancoding.com/sketch -->
  <title>both in one</title>
  <desc>Created with Sketch.</desc>
  <g id="el_S-2d9yQa5L" fill-rule="evenodd">
    <g id="el_R9UW4-P7ah_cFTtL09b-" data-animator-group="true" data-animator-type="1">
      <g id="el_R9UW4-P7ah" fill-rule="nonzero">
        <path
          d="M2.04181362,19.9352748 C3.07651646,18.0314216 14.0719587,0.344900949 38.4633538,0.165552455 C64.0550042,-0.0137960379 75.3539593,20.2525837 75.7333503,21.1217341 C77.4164669,25.0053188 76.699073,29.9925865 73.1327972,31.7722754 C69.0422719,33.814089 64.7655001,32.5862416 62.4822559,29.3579688 C57.7709089,22.7358705 57.2535575,14.3892676 45.1337381,9.44338797 C18.8660819,-1.29682757 0.965722656,21.8598221 2.02111956,19.9283768 L2.04181362,19.9352748 Z M75.1884068,68.3317759 C74.1675,70.2218331 63.1720578,87.9221498 38.7806627,88.0808043 C13.1890123,88.2532547 1.87626116,68.0075691 1.50376814,67.1108266 C-0.206940569,63.247936 0.517351423,58.2675663 4.06983119,56.4878774 C8.16725446,54.4460638 12.4509242,55.6808092 14.7272705,58.902184 C19.4455155,65.5380783 19.9559689,73.8708852 32.0826862,78.8236628 C58.3641385,89.5431843 76.2713958,66.4072287 75.1953048,68.338674 L75.1884068,68.3317759 Z"
          id="el_j8B3lfKba6"/>
      </g>
    </g>
    <g id="el_xmvLW_YrWI">
     
   <path d="M28.4474587,0.513231468 C28.2796177,0.0931672765 27.8075647,-0.109691592 27.3924982,0.0598835017 C27.2107649,0.134485066 27.0616359,0.273071818 26.9731791,0.450107068 C25.3883284,3.30505154 22.401778,5.06937853 19.1663012,5.06191838 L14.9983424,5.06191838 C9.47659804,5.06392688 5.00130869,9.5939634 4.9996076,15.1821944 C5.00726251,15.5434381 5.03362943,15.904108 5.07814134,16.2627694 C8.40065739,13.8539996 13.1991542,11.8087691 19.9995527,11.8087691 C20.4599816,11.8087691 20.8333713,12.1863677 20.8333713,12.6523406 C20.8333713,13.1180265 20.4599816,13.4956252 19.9995527,13.4956252 C6.90511407,13.4956252 1.35388408,21.618014 0.125128673,24.6697918 C-0.224445719,25.5331614 0.183532829,26.5196236 1.03634692,26.8734072 C1.88944452,27.2271908 2.86417019,26.8140129 3.21374459,25.9509302 C3.2917113,25.7612701 4.30187639,23.4256672 6.95841495,21.1752824 C9.06124809,24.0775701 12.5314756,25.627848 16.0674787,25.2445108 C24.2446276,24.6436812 30,17.2216864 30,8.13492896 C30.0028238,5.51354477 29.4746348,2.91970577 28.4480258,0.513231468 L28.4474587,0.513231468 Z" id="el_kL3ZG-zAr2"></path>
    
      
    </g>
  </g>
</svg>
